<svg width="45" height="35" viewBox="0 0 45 35" fill="none" xmlns="http://www.w3.org/2000/svg">
<path d="M18.4211 0V4.16316L22.1053 6.61316V3.68421H40.5263V31.3158H31.3158V35H44.2105V0H18.4211ZM13.8158 5.52632L0 14.7368V35H27.6316V14.7368L13.8158 5.52632ZM25.7895 7.36842V9.08158L28.7553 11.0526H29.4737V7.36842H25.7895ZM33.1579 7.36842V11.0526H36.8421V7.36842H33.1579ZM13.8158 10.1316L23.9474 16.5789V31.3158H18.4211V20.2632H9.21053V31.3158H3.68421V16.5789L13.8158 10.1316ZM33.1579 14.7368V18.4211H36.8421V14.7368H33.1579ZM33.1579 22.1053V25.7895H36.8421V22.1053H33.1579Z" fill="#131515"/>
</svg>
