<svg width="45" height="34" viewBox="0 0 45 34" fill="none" xmlns="http://www.w3.org/2000/svg">
<path d="M3.90683 0H37.1149C38.1511 0 39.1448 0.398015 39.8775 1.10649C40.6101 1.81496 41.0217 2.77585 41.0217 3.77778V7.55556H33.2081V3.77778H7.81366V26.4444H25.3944V30.2222H3.90683C2.87068 30.2222 1.87696 29.8242 1.14428 29.1157C0.411612 28.4073 0 27.4464 0 26.4444V3.77778C0 2.77585 0.411612 1.81496 1.14428 1.10649C1.87696 0.398015 2.87068 0 3.90683 0ZM31.2547 11.3333H42.9752C43.4932 11.3333 43.9901 11.5323 44.3564 11.8866C44.7228 12.2408 44.9286 12.7213 44.9286 13.2222V32.1111C44.9286 32.6121 44.7228 33.0925 44.3564 33.4468C43.9901 33.801 43.4932 34 42.9752 34H31.2547C30.7366 34 30.2397 33.801 29.8734 33.4468C29.507 33.0925 29.3012 32.6121 29.3012 32.1111V13.2222C29.3012 12.7213 29.507 12.2408 29.8734 11.8866C30.2397 11.5323 30.7366 11.3333 31.2547 11.3333ZM33.2081 15.1111V28.3333H41.0217V15.1111H33.2081Z" fill="#131515"/>
</svg>
